<svg width="20" height="20" viewBox="0 0 20 20" fill="none" xmlns="http://www.w3.org/2000/svg">
<path fill-rule="evenodd" clip-rule="evenodd" d="M8.33342 1.66667C4.65152 1.66667 1.66675 4.65144 1.66675 8.33333C1.66675 12.0152 4.65152 15 8.33342 15C9.87401 15 11.2925 14.4774 12.4215 13.5999L16.9108 18.0893C17.2363 18.4147 17.7639 18.4147 18.0893 18.0893C18.4148 17.7638 18.4148 17.2362 18.0893 16.9107L13.6 12.4214C14.4775 11.2925 15.0001 9.87393 15.0001 8.33333C15.0001 4.65144 12.0153 1.66667 8.33342 1.66667ZM3.33341 8.33333C3.33341 5.57191 5.57199 3.33333 8.33342 3.33333C11.0948 3.33333 13.3334 5.57191 13.3334 8.33333C13.3334 11.0948 11.0948 13.3333 8.33342 13.3333C5.57199 13.3333 3.33341 11.0948 3.33341 8.33333Z" fill="#121519" fill-opacity="0.6"/>
</svg>
